<mxfile host="app.diagrams.net" modified="2024-05-21T11:40:15.701Z" agent="Mozilla/5.0 (Windows NT 10.0; Win64; x64) AppleWebKit/537.36 (KHTML, like Gecko) Chrome/124.0.0.0 Safari/537.36" etag="3gpTeNTzT6Lw9rrZ-3bl" version="24.3.1" type="google">
  <diagram id="R2lEEEUBdFMjLlhIrx00" name="Page-1">
    <mxGraphModel grid="1" page="1" gridSize="10" guides="1" tooltips="1" connect="1" arrows="1" fold="1" pageScale="1" pageWidth="850" pageHeight="1100" math="0" shadow="0" extFonts="Permanent Marker^https://fonts.googleapis.com/css?family=Permanent+Marker">
      <root>
        <mxCell id="0" />
        <mxCell id="1" parent="0" />
        <mxCell id="lQTOpDhkp-Ly-11tszaa-1" value="" style="ellipse;whiteSpace=wrap;html=1;" vertex="1" parent="1">
          <mxGeometry x="300" y="5" width="100" height="50" as="geometry" />
        </mxCell>
        <mxCell id="lQTOpDhkp-Ly-11tszaa-3" value="" style="endArrow=none;html=1;rounded=0;" edge="1" parent="1">
          <mxGeometry width="50" height="50" relative="1" as="geometry">
            <mxPoint x="270" y="100" as="sourcePoint" />
            <mxPoint x="320" y="50" as="targetPoint" />
          </mxGeometry>
        </mxCell>
        <mxCell id="lQTOpDhkp-Ly-11tszaa-6" value="Email" style="text;html=1;align=center;verticalAlign=middle;whiteSpace=wrap;rounded=0;" vertex="1" parent="1">
          <mxGeometry x="320" y="10" width="60" height="30" as="geometry" />
        </mxCell>
        <mxCell id="lQTOpDhkp-Ly-11tszaa-7" value="" style="rounded=0;whiteSpace=wrap;html=1;" vertex="1" parent="1">
          <mxGeometry x="180" y="100" width="120" height="60" as="geometry" />
        </mxCell>
        <mxCell id="lQTOpDhkp-Ly-11tszaa-8" value="Customer" style="text;html=1;align=center;verticalAlign=middle;whiteSpace=wrap;rounded=0;" vertex="1" parent="1">
          <mxGeometry x="210" y="115" width="60" height="30" as="geometry" />
        </mxCell>
        <mxCell id="lQTOpDhkp-Ly-11tszaa-9" value="" style="ellipse;whiteSpace=wrap;html=1;" vertex="1" parent="1">
          <mxGeometry x="200" width="90" height="50" as="geometry" />
        </mxCell>
        <mxCell id="lQTOpDhkp-Ly-11tszaa-10" value="" style="endArrow=none;html=1;rounded=0;exitX=0.5;exitY=0;exitDx=0;exitDy=0;" edge="1" parent="1" source="lQTOpDhkp-Ly-11tszaa-7">
          <mxGeometry width="50" height="50" relative="1" as="geometry">
            <mxPoint x="190" y="100" as="sourcePoint" />
            <mxPoint x="240" y="50" as="targetPoint" />
          </mxGeometry>
        </mxCell>
        <mxCell id="lQTOpDhkp-Ly-11tszaa-11" value="" style="endArrow=none;html=1;rounded=0;" edge="1" parent="1">
          <mxGeometry width="50" height="50" relative="1" as="geometry">
            <mxPoint x="201" y="99" as="sourcePoint" />
            <mxPoint x="171" y="59" as="targetPoint" />
          </mxGeometry>
        </mxCell>
        <mxCell id="lQTOpDhkp-Ly-11tszaa-12" value="" style="ellipse;whiteSpace=wrap;html=1;" vertex="1" parent="1">
          <mxGeometry x="90" width="100" height="60" as="geometry" />
        </mxCell>
        <mxCell id="lQTOpDhkp-Ly-11tszaa-13" value="" style="endArrow=none;html=1;rounded=0;exitX=0;exitY=0.5;exitDx=0;exitDy=0;" edge="1" parent="1" source="lQTOpDhkp-Ly-11tszaa-7">
          <mxGeometry width="50" height="50" relative="1" as="geometry">
            <mxPoint x="170" y="140" as="sourcePoint" />
            <mxPoint x="110" y="100" as="targetPoint" />
          </mxGeometry>
        </mxCell>
        <mxCell id="lQTOpDhkp-Ly-11tszaa-14" value="" style="ellipse;whiteSpace=wrap;html=1;" vertex="1" parent="1">
          <mxGeometry x="20" y="50" width="100" height="60" as="geometry" />
        </mxCell>
        <mxCell id="lQTOpDhkp-Ly-11tszaa-15" value="Password" style="text;html=1;align=center;verticalAlign=middle;whiteSpace=wrap;rounded=0;" vertex="1" parent="1">
          <mxGeometry x="215" y="15" width="60" height="30" as="geometry" />
        </mxCell>
        <mxCell id="lQTOpDhkp-Ly-11tszaa-17" value="Confirm password" style="text;html=1;align=center;verticalAlign=middle;whiteSpace=wrap;rounded=0;" vertex="1" parent="1">
          <mxGeometry x="110" y="20" width="60" height="30" as="geometry" />
        </mxCell>
        <mxCell id="lQTOpDhkp-Ly-11tszaa-18" value="Name" style="text;html=1;align=center;verticalAlign=middle;whiteSpace=wrap;rounded=0;" vertex="1" parent="1">
          <mxGeometry x="40" y="70" width="60" height="30" as="geometry" />
        </mxCell>
        <mxCell id="lQTOpDhkp-Ly-11tszaa-19" value="" style="ellipse;whiteSpace=wrap;html=1;" vertex="1" parent="1">
          <mxGeometry x="20" y="130" width="90" height="50" as="geometry" />
        </mxCell>
        <mxCell id="lQTOpDhkp-Ly-11tszaa-20" value="" style="endArrow=none;html=1;rounded=0;exitX=1;exitY=0.5;exitDx=0;exitDy=0;" edge="1" parent="1" source="lQTOpDhkp-Ly-11tszaa-19">
          <mxGeometry width="50" height="50" relative="1" as="geometry">
            <mxPoint x="132" y="190" as="sourcePoint" />
            <mxPoint x="182" y="140" as="targetPoint" />
          </mxGeometry>
        </mxCell>
        <mxCell id="lQTOpDhkp-Ly-11tszaa-21" value="Role" style="text;html=1;align=center;verticalAlign=middle;whiteSpace=wrap;rounded=0;" vertex="1" parent="1">
          <mxGeometry x="35" y="140" width="60" height="30" as="geometry" />
        </mxCell>
        <mxCell id="lQTOpDhkp-Ly-11tszaa-22" value="" style="rounded=0;whiteSpace=wrap;html=1;" vertex="1" parent="1">
          <mxGeometry x="580" y="110" width="120" height="60" as="geometry" />
        </mxCell>
        <mxCell id="lQTOpDhkp-Ly-11tszaa-23" value="Flight" style="text;html=1;align=center;verticalAlign=middle;whiteSpace=wrap;rounded=0;" vertex="1" parent="1">
          <mxGeometry x="610" y="125" width="60" height="30" as="geometry" />
        </mxCell>
        <mxCell id="lQTOpDhkp-Ly-11tszaa-24" value="" style="endArrow=none;html=1;rounded=0;exitX=0.833;exitY=0;exitDx=0;exitDy=0;exitPerimeter=0;" edge="1" parent="1" source="lQTOpDhkp-Ly-11tszaa-22">
          <mxGeometry width="50" height="50" relative="1" as="geometry">
            <mxPoint x="654" y="107" as="sourcePoint" />
            <mxPoint x="704" y="57" as="targetPoint" />
          </mxGeometry>
        </mxCell>
        <mxCell id="lQTOpDhkp-Ly-11tszaa-26" value="" style="ellipse;whiteSpace=wrap;html=1;" vertex="1" parent="1">
          <mxGeometry x="680" y="12" width="90" height="60" as="geometry" />
        </mxCell>
        <mxCell id="lQTOpDhkp-Ly-11tszaa-27" value="" style="endArrow=none;html=1;rounded=0;entryX=0.611;entryY=1.042;entryDx=0;entryDy=0;entryPerimeter=0;" edge="1" parent="1" source="lQTOpDhkp-Ly-11tszaa-22" target="lQTOpDhkp-Ly-11tszaa-28">
          <mxGeometry width="50" height="50" relative="1" as="geometry">
            <mxPoint x="665" y="112" as="sourcePoint" />
            <mxPoint x="635" y="52" as="targetPoint" />
          </mxGeometry>
        </mxCell>
        <mxCell id="lQTOpDhkp-Ly-11tszaa-28" value="" style="ellipse;whiteSpace=wrap;html=1;" vertex="1" parent="1">
          <mxGeometry x="580" y="12" width="95" height="48" as="geometry" />
        </mxCell>
        <mxCell id="lQTOpDhkp-Ly-11tszaa-29" value="" style="endArrow=none;html=1;rounded=0;" edge="1" parent="1" target="lQTOpDhkp-Ly-11tszaa-30">
          <mxGeometry width="50" height="50" relative="1" as="geometry">
            <mxPoint x="599" y="109" as="sourcePoint" />
            <mxPoint x="571" y="70" as="targetPoint" />
          </mxGeometry>
        </mxCell>
        <mxCell id="lQTOpDhkp-Ly-11tszaa-30" value="" style="ellipse;whiteSpace=wrap;html=1;" vertex="1" parent="1">
          <mxGeometry x="480" y="12" width="91" height="58" as="geometry" />
        </mxCell>
        <mxCell id="lQTOpDhkp-Ly-11tszaa-33" value="&lt;u&gt;Flight id&lt;/u&gt;" style="text;html=1;align=center;verticalAlign=middle;whiteSpace=wrap;rounded=0;" vertex="1" parent="1">
          <mxGeometry x="490" y="30" width="60" height="30" as="geometry" />
        </mxCell>
        <mxCell id="lQTOpDhkp-Ly-11tszaa-34" value="Flight name" style="text;html=1;align=center;verticalAlign=middle;whiteSpace=wrap;rounded=0;" vertex="1" parent="1">
          <mxGeometry x="597.5" y="21" width="60" height="30" as="geometry" />
        </mxCell>
        <mxCell id="lQTOpDhkp-Ly-11tszaa-35" value="Seat capacity" style="text;html=1;align=center;verticalAlign=middle;whiteSpace=wrap;rounded=0;" vertex="1" parent="1">
          <mxGeometry x="700" y="25" width="60" height="30" as="geometry" />
        </mxCell>
        <mxCell id="lQTOpDhkp-Ly-11tszaa-36" value="" style="rounded=0;whiteSpace=wrap;html=1;" vertex="1" parent="1">
          <mxGeometry x="580" y="280" width="120" height="60" as="geometry" />
        </mxCell>
        <mxCell id="lQTOpDhkp-Ly-11tszaa-37" value="Routes" style="text;html=1;align=center;verticalAlign=middle;whiteSpace=wrap;rounded=0;" vertex="1" parent="1">
          <mxGeometry x="597.5" y="295" width="60" height="30" as="geometry" />
        </mxCell>
        <mxCell id="lQTOpDhkp-Ly-11tszaa-38" value="" style="endArrow=none;html=1;rounded=0;" edge="1" parent="1">
          <mxGeometry width="50" height="50" relative="1" as="geometry">
            <mxPoint x="580" y="370" as="sourcePoint" />
            <mxPoint x="598" y="342" as="targetPoint" />
          </mxGeometry>
        </mxCell>
        <mxCell id="lQTOpDhkp-Ly-11tszaa-40" value="" style="ellipse;whiteSpace=wrap;html=1;" vertex="1" parent="1">
          <mxGeometry x="490" y="360" width="100" height="60" as="geometry" />
        </mxCell>
        <mxCell id="lQTOpDhkp-Ly-11tszaa-41" value="Departure location" style="text;html=1;align=center;verticalAlign=middle;whiteSpace=wrap;rounded=0;" vertex="1" parent="1">
          <mxGeometry x="510" y="380" width="60" height="30" as="geometry" />
        </mxCell>
        <mxCell id="lQTOpDhkp-Ly-11tszaa-42" value="" style="ellipse;whiteSpace=wrap;html=1;" vertex="1" parent="1">
          <mxGeometry x="590" y="380" width="100" height="60" as="geometry" />
        </mxCell>
        <mxCell id="lQTOpDhkp-Ly-11tszaa-43" value="Arrival Location" style="text;html=1;align=center;verticalAlign=middle;whiteSpace=wrap;rounded=0;" vertex="1" parent="1">
          <mxGeometry x="610" y="395" width="60" height="30" as="geometry" />
        </mxCell>
        <mxCell id="lQTOpDhkp-Ly-11tszaa-44" value="" style="ellipse;whiteSpace=wrap;html=1;" vertex="1" parent="1">
          <mxGeometry x="692" y="384" width="80" height="50" as="geometry" />
        </mxCell>
        <mxCell id="lQTOpDhkp-Ly-11tszaa-45" value="Departure time" style="text;html=1;align=center;verticalAlign=middle;whiteSpace=wrap;rounded=0;" vertex="1" parent="1">
          <mxGeometry x="700" y="395" width="60" height="30" as="geometry" />
        </mxCell>
        <mxCell id="lQTOpDhkp-Ly-11tszaa-46" value="" style="ellipse;whiteSpace=wrap;html=1;" vertex="1" parent="1">
          <mxGeometry x="738" y="285" width="80" height="40" as="geometry" />
        </mxCell>
        <mxCell id="lQTOpDhkp-Ly-11tszaa-47" value="Flight_id" style="text;html=1;align=center;verticalAlign=middle;whiteSpace=wrap;rounded=0;" vertex="1" parent="1">
          <mxGeometry x="740" y="290" width="60" height="30" as="geometry" />
        </mxCell>
        <mxCell id="lQTOpDhkp-Ly-11tszaa-48" value="" style="ellipse;whiteSpace=wrap;html=1;" vertex="1" parent="1">
          <mxGeometry x="430" y="310" width="100" height="50" as="geometry" />
        </mxCell>
        <mxCell id="lQTOpDhkp-Ly-11tszaa-49" value="Duration" style="text;html=1;align=center;verticalAlign=middle;whiteSpace=wrap;rounded=0;" vertex="1" parent="1">
          <mxGeometry x="450" y="315" width="60" height="30" as="geometry" />
        </mxCell>
        <mxCell id="lQTOpDhkp-Ly-11tszaa-50" value="" style="endArrow=none;html=1;rounded=0;entryX=0;entryY=0.5;entryDx=0;entryDy=0;exitX=0.993;exitY=0.367;exitDx=0;exitDy=0;exitPerimeter=0;" edge="1" parent="1" source="lQTOpDhkp-Ly-11tszaa-48" target="lQTOpDhkp-Ly-11tszaa-36">
          <mxGeometry width="50" height="50" relative="1" as="geometry">
            <mxPoint x="510" y="340" as="sourcePoint" />
            <mxPoint x="560" y="290" as="targetPoint" />
          </mxGeometry>
        </mxCell>
        <mxCell id="lQTOpDhkp-Ly-11tszaa-51" value="" style="endArrow=none;html=1;rounded=0;entryX=0.5;entryY=0;entryDx=0;entryDy=0;exitX=0.5;exitY=1;exitDx=0;exitDy=0;" edge="1" parent="1" source="lQTOpDhkp-Ly-11tszaa-36" target="lQTOpDhkp-Ly-11tszaa-42">
          <mxGeometry width="50" height="50" relative="1" as="geometry">
            <mxPoint x="630" y="350" as="sourcePoint" />
            <mxPoint x="500" y="210" as="targetPoint" />
          </mxGeometry>
        </mxCell>
        <mxCell id="lQTOpDhkp-Ly-11tszaa-52" value="" style="endArrow=none;html=1;rounded=0;exitX=0.75;exitY=1;exitDx=0;exitDy=0;" edge="1" parent="1" source="lQTOpDhkp-Ly-11tszaa-36" target="lQTOpDhkp-Ly-11tszaa-44">
          <mxGeometry width="50" height="50" relative="1" as="geometry">
            <mxPoint x="671" y="345" as="sourcePoint" />
            <mxPoint x="711" y="355" as="targetPoint" />
          </mxGeometry>
        </mxCell>
        <mxCell id="lQTOpDhkp-Ly-11tszaa-53" value="" style="endArrow=none;html=1;rounded=0;" edge="1" parent="1">
          <mxGeometry width="50" height="50" relative="1" as="geometry">
            <mxPoint x="701" y="308" as="sourcePoint" />
            <mxPoint x="741" y="308" as="targetPoint" />
          </mxGeometry>
        </mxCell>
        <mxCell id="lQTOpDhkp-Ly-11tszaa-55" value="" style="ellipse;whiteSpace=wrap;html=1;" vertex="1" parent="1">
          <mxGeometry x="425" y="250" width="100" height="50" as="geometry" />
        </mxCell>
        <mxCell id="lQTOpDhkp-Ly-11tszaa-56" value="" style="endArrow=none;html=1;rounded=0;entryX=0.017;entryY=0.378;entryDx=0;entryDy=0;entryPerimeter=0;exitX=1.03;exitY=0.747;exitDx=0;exitDy=0;exitPerimeter=0;" edge="1" parent="1" source="lQTOpDhkp-Ly-11tszaa-55" target="lQTOpDhkp-Ly-11tszaa-36">
          <mxGeometry width="50" height="50" relative="1" as="geometry">
            <mxPoint x="480" y="290" as="sourcePoint" />
            <mxPoint x="530" y="240" as="targetPoint" />
          </mxGeometry>
        </mxCell>
        <mxCell id="lQTOpDhkp-Ly-11tszaa-57" value="Seats available" style="text;html=1;align=center;verticalAlign=middle;whiteSpace=wrap;rounded=0;" vertex="1" parent="1">
          <mxGeometry x="450" y="265" width="60" height="30" as="geometry" />
        </mxCell>
        <mxCell id="lQTOpDhkp-Ly-11tszaa-58" value="" style="ellipse;whiteSpace=wrap;html=1;" vertex="1" parent="1">
          <mxGeometry x="740" y="334" width="110" height="50" as="geometry" />
        </mxCell>
        <mxCell id="lQTOpDhkp-Ly-11tszaa-60" value="" style="endArrow=none;html=1;rounded=0;exitX=0.006;exitY=0.347;exitDx=0;exitDy=0;exitPerimeter=0;entryX=1.022;entryY=0.878;entryDx=0;entryDy=0;entryPerimeter=0;" edge="1" parent="1" source="lQTOpDhkp-Ly-11tszaa-58" target="lQTOpDhkp-Ly-11tszaa-36">
          <mxGeometry width="50" height="50" relative="1" as="geometry">
            <mxPoint x="731.7" y="367.98" as="sourcePoint" />
            <mxPoint x="693" y="310" as="targetPoint" />
          </mxGeometry>
        </mxCell>
        <mxCell id="lQTOpDhkp-Ly-11tszaa-61" value="Arrival time" style="text;html=1;align=center;verticalAlign=middle;whiteSpace=wrap;rounded=0;" vertex="1" parent="1">
          <mxGeometry x="760" y="350" width="60" height="30" as="geometry" />
        </mxCell>
        <mxCell id="lQTOpDhkp-Ly-11tszaa-62" value="" style="rhombus;whiteSpace=wrap;html=1;" vertex="1" parent="1">
          <mxGeometry x="620" y="200" width="50" height="50" as="geometry" />
        </mxCell>
        <mxCell id="lQTOpDhkp-Ly-11tszaa-64" value="" style="endArrow=none;html=1;rounded=0;" edge="1" parent="1">
          <mxGeometry width="50" height="50" relative="1" as="geometry">
            <mxPoint x="644" y="201" as="sourcePoint" />
            <mxPoint x="644" y="171" as="targetPoint" />
          </mxGeometry>
        </mxCell>
        <mxCell id="lQTOpDhkp-Ly-11tszaa-65" value="" style="endArrow=none;html=1;rounded=0;" edge="1" parent="1">
          <mxGeometry width="50" height="50" relative="1" as="geometry">
            <mxPoint x="645" y="281" as="sourcePoint" />
            <mxPoint x="645" y="251" as="targetPoint" />
          </mxGeometry>
        </mxCell>
        <mxCell id="lQTOpDhkp-Ly-11tszaa-66" value="Has" style="text;html=1;align=center;verticalAlign=middle;whiteSpace=wrap;rounded=0;" vertex="1" parent="1">
          <mxGeometry x="615" y="210" width="60" height="30" as="geometry" />
        </mxCell>
        <mxCell id="lQTOpDhkp-Ly-11tszaa-67" value="1" style="text;html=1;align=center;verticalAlign=middle;whiteSpace=wrap;rounded=0;" vertex="1" parent="1">
          <mxGeometry x="590" y="170" width="60" height="30" as="geometry" />
        </mxCell>
        <mxCell id="lQTOpDhkp-Ly-11tszaa-68" value="n" style="text;html=1;align=center;verticalAlign=middle;whiteSpace=wrap;rounded=0;" vertex="1" parent="1">
          <mxGeometry x="590" y="250" width="60" height="30" as="geometry" />
        </mxCell>
        <mxCell id="lQTOpDhkp-Ly-11tszaa-70" value="" style="rhombus;whiteSpace=wrap;html=1;" vertex="1" parent="1">
          <mxGeometry x="410" y="110" width="55" height="40" as="geometry" />
        </mxCell>
        <mxCell id="lQTOpDhkp-Ly-11tszaa-71" value="Books" style="text;html=1;align=center;verticalAlign=middle;whiteSpace=wrap;rounded=0;" vertex="1" parent="1">
          <mxGeometry x="407.5" y="115" width="60" height="30" as="geometry" />
        </mxCell>
        <mxCell id="lQTOpDhkp-Ly-11tszaa-72" value="" style="endArrow=none;html=1;rounded=0;entryX=0.006;entryY=0.378;entryDx=0;entryDy=0;exitX=1;exitY=0.5;exitDx=0;exitDy=0;entryPerimeter=0;" edge="1" parent="1" source="lQTOpDhkp-Ly-11tszaa-71" target="lQTOpDhkp-Ly-11tszaa-22">
          <mxGeometry width="50" height="50" relative="1" as="geometry">
            <mxPoint x="451" y="140" as="sourcePoint" />
            <mxPoint x="501" y="90" as="targetPoint" />
          </mxGeometry>
        </mxCell>
        <mxCell id="lQTOpDhkp-Ly-11tszaa-73" value="" style="endArrow=none;html=1;rounded=0;entryX=1;entryY=0.5;entryDx=0;entryDy=0;exitX=0;exitY=0.5;exitDx=0;exitDy=0;" edge="1" parent="1" source="lQTOpDhkp-Ly-11tszaa-71" target="lQTOpDhkp-Ly-11tszaa-7">
          <mxGeometry width="50" height="50" relative="1" as="geometry">
            <mxPoint x="450" y="140" as="sourcePoint" />
            <mxPoint x="500" y="90" as="targetPoint" />
          </mxGeometry>
        </mxCell>
        <mxCell id="lQTOpDhkp-Ly-11tszaa-74" value="n" style="text;html=1;align=center;verticalAlign=middle;whiteSpace=wrap;rounded=0;" vertex="1" parent="1">
          <mxGeometry x="340" y="104" width="60" height="30" as="geometry" />
        </mxCell>
        <mxCell id="lQTOpDhkp-Ly-11tszaa-75" value="n" style="text;html=1;align=center;verticalAlign=middle;whiteSpace=wrap;rounded=0;" vertex="1" parent="1">
          <mxGeometry x="480" y="105" width="60" height="30" as="geometry" />
        </mxCell>
        <mxCell id="lQTOpDhkp-Ly-11tszaa-77" value="" style="ellipse;whiteSpace=wrap;html=1;" vertex="1" parent="1">
          <mxGeometry x="115" y="180" width="100" height="45" as="geometry" />
        </mxCell>
        <mxCell id="lQTOpDhkp-Ly-11tszaa-78" value="&lt;u&gt;customer_id&lt;/u&gt;" style="text;html=1;align=center;verticalAlign=middle;whiteSpace=wrap;rounded=0;" vertex="1" parent="1">
          <mxGeometry x="135" y="187.5" width="60" height="30" as="geometry" />
        </mxCell>
        <mxCell id="lQTOpDhkp-Ly-11tszaa-79" value="" style="endArrow=none;html=1;rounded=0;entryX=0.439;entryY=1.022;entryDx=0;entryDy=0;entryPerimeter=0;" edge="1" parent="1" target="lQTOpDhkp-Ly-11tszaa-7">
          <mxGeometry width="50" height="50" relative="1" as="geometry">
            <mxPoint x="211" y="193" as="sourcePoint" />
            <mxPoint x="261" y="143" as="targetPoint" />
          </mxGeometry>
        </mxCell>
        <mxCell id="lQTOpDhkp-Ly-11tszaa-81" value="" style="rhombus;whiteSpace=wrap;html=1;" vertex="1" parent="1">
          <mxGeometry x="320" y="210" width="70" height="65" as="geometry" />
        </mxCell>
        <mxCell id="lQTOpDhkp-Ly-11tszaa-82" value="" style="endArrow=none;html=1;rounded=0;entryX=0.687;entryY=1.067;entryDx=0;entryDy=0;entryPerimeter=0;exitX=0;exitY=0;exitDx=0;exitDy=0;" edge="1" parent="1" source="lQTOpDhkp-Ly-11tszaa-81" target="lQTOpDhkp-Ly-11tszaa-7">
          <mxGeometry width="50" height="50" relative="1" as="geometry">
            <mxPoint x="710" y="230" as="sourcePoint" />
            <mxPoint x="760" y="180" as="targetPoint" />
          </mxGeometry>
        </mxCell>
        <mxCell id="lQTOpDhkp-Ly-11tszaa-83" value="n" style="text;html=1;align=center;verticalAlign=middle;whiteSpace=wrap;rounded=0;" vertex="1" parent="1">
          <mxGeometry x="290" y="170" width="60" height="30" as="geometry" />
        </mxCell>
        <mxCell id="lQTOpDhkp-Ly-11tszaa-84" value="" style="endArrow=none;html=1;rounded=0;entryX=0;entryY=0.75;entryDx=0;entryDy=0;" edge="1" parent="1" target="lQTOpDhkp-Ly-11tszaa-22">
          <mxGeometry width="50" height="50" relative="1" as="geometry">
            <mxPoint x="386" y="239" as="sourcePoint" />
            <mxPoint x="436" y="189" as="targetPoint" />
          </mxGeometry>
        </mxCell>
        <mxCell id="lQTOpDhkp-Ly-11tszaa-85" value="n" style="text;html=1;align=center;verticalAlign=middle;whiteSpace=wrap;rounded=0;" vertex="1" parent="1">
          <mxGeometry x="405" y="187.5" width="60" height="30" as="geometry" />
        </mxCell>
        <mxCell id="lQTOpDhkp-Ly-11tszaa-86" value="Cancels" style="text;html=1;align=center;verticalAlign=middle;whiteSpace=wrap;rounded=0;" vertex="1" parent="1">
          <mxGeometry x="325" y="225" width="60" height="30" as="geometry" />
        </mxCell>
        <mxCell id="lQTOpDhkp-Ly-11tszaa-87" value="" style="rounded=0;whiteSpace=wrap;html=1;" vertex="1" parent="1">
          <mxGeometry x="290" y="345" width="120" height="60" as="geometry" />
        </mxCell>
        <mxCell id="lQTOpDhkp-Ly-11tszaa-88" value="" style="endArrow=none;html=1;rounded=0;exitX=0.533;exitY=0.083;exitDx=0;exitDy=0;exitPerimeter=0;" edge="1" parent="1">
          <mxGeometry width="50" height="50" relative="1" as="geometry">
            <mxPoint x="354.9599999999998" y="347.9799999999998" as="sourcePoint" />
            <mxPoint x="355" y="276" as="targetPoint" />
          </mxGeometry>
        </mxCell>
        <mxCell id="lQTOpDhkp-Ly-11tszaa-89" value="" style="endArrow=none;html=1;rounded=0;" edge="1" parent="1">
          <mxGeometry width="50" height="50" relative="1" as="geometry">
            <mxPoint x="439" y="110" as="sourcePoint" />
            <mxPoint x="439" y="-30" as="targetPoint" />
          </mxGeometry>
        </mxCell>
        <mxCell id="lQTOpDhkp-Ly-11tszaa-90" value="Cancel_Booking" style="text;html=1;align=center;verticalAlign=middle;whiteSpace=wrap;rounded=0;" vertex="1" parent="1">
          <mxGeometry x="321" y="354" width="60" height="30" as="geometry" />
        </mxCell>
        <mxCell id="lQTOpDhkp-Ly-11tszaa-91" value="" style="rounded=0;whiteSpace=wrap;html=1;" vertex="1" parent="1">
          <mxGeometry x="385" y="-90" width="120" height="60" as="geometry" />
        </mxCell>
        <mxCell id="lQTOpDhkp-Ly-11tszaa-92" value="Booking" style="text;html=1;align=center;verticalAlign=middle;whiteSpace=wrap;rounded=0;" vertex="1" parent="1">
          <mxGeometry x="414" y="-75" width="60" height="30" as="geometry" />
        </mxCell>
        <mxCell id="lQTOpDhkp-Ly-11tszaa-94" value="" style="ellipse;whiteSpace=wrap;html=1;" vertex="1" parent="1">
          <mxGeometry x="440" y="-260" width="105" height="50" as="geometry" />
        </mxCell>
        <mxCell id="lQTOpDhkp-Ly-11tszaa-95" value="" style="ellipse;whiteSpace=wrap;html=1;" vertex="1" parent="1">
          <mxGeometry x="550" y="-220" width="110" height="50" as="geometry" />
        </mxCell>
        <mxCell id="lQTOpDhkp-Ly-11tszaa-96" value="" style="ellipse;whiteSpace=wrap;html=1;" vertex="1" parent="1">
          <mxGeometry x="325" y="-260" width="105" height="50" as="geometry" />
        </mxCell>
        <mxCell id="lQTOpDhkp-Ly-11tszaa-97" value="" style="ellipse;whiteSpace=wrap;html=1;" vertex="1" parent="1">
          <mxGeometry x="220" y="-230" width="105" height="50" as="geometry" />
        </mxCell>
        <mxCell id="lQTOpDhkp-Ly-11tszaa-98" value="&lt;u&gt;Booking_id&lt;/u&gt;" style="text;html=1;align=center;verticalAlign=middle;whiteSpace=wrap;rounded=0;" vertex="1" parent="1">
          <mxGeometry x="242.5" y="-220" width="60" height="30" as="geometry" />
        </mxCell>
        <mxCell id="lQTOpDhkp-Ly-11tszaa-101" value="Booking_date_time" style="text;html=1;align=center;verticalAlign=middle;whiteSpace=wrap;rounded=0;" vertex="1" parent="1">
          <mxGeometry x="351" y="-244" width="55" height="20" as="geometry" />
        </mxCell>
        <mxCell id="lQTOpDhkp-Ly-11tszaa-102" value="No of persons" style="text;html=1;align=center;verticalAlign=middle;whiteSpace=wrap;rounded=0;" vertex="1" parent="1">
          <mxGeometry x="465" y="-250" width="60" height="30" as="geometry" />
        </mxCell>
        <mxCell id="lQTOpDhkp-Ly-11tszaa-103" value="Flight-id" style="text;html=1;align=center;verticalAlign=middle;whiteSpace=wrap;rounded=0;" vertex="1" parent="1">
          <mxGeometry x="575" y="-210" width="60" height="30" as="geometry" />
        </mxCell>
        <mxCell id="lQTOpDhkp-Ly-11tszaa-104" value="" style="ellipse;whiteSpace=wrap;html=1;" vertex="1" parent="1">
          <mxGeometry x="170" y="-180" width="100" height="50" as="geometry" />
        </mxCell>
        <mxCell id="lQTOpDhkp-Ly-11tszaa-105" value="" style="ellipse;whiteSpace=wrap;html=1;" vertex="1" parent="1">
          <mxGeometry x="150" y="-120" width="100" height="50" as="geometry" />
        </mxCell>
        <mxCell id="lQTOpDhkp-Ly-11tszaa-106" value="Route_id" style="text;html=1;align=center;verticalAlign=middle;whiteSpace=wrap;rounded=0;" vertex="1" parent="1">
          <mxGeometry x="191" y="-166" width="60" height="30" as="geometry" />
        </mxCell>
        <mxCell id="lQTOpDhkp-Ly-11tszaa-107" value="Payment_id" style="text;html=1;align=center;verticalAlign=middle;whiteSpace=wrap;rounded=0;" vertex="1" parent="1">
          <mxGeometry x="170" y="-105" width="60" height="30" as="geometry" />
        </mxCell>
        <mxCell id="lQTOpDhkp-Ly-11tszaa-108" value="" style="endArrow=none;html=1;rounded=0;exitX=0;exitY=0.5;exitDx=0;exitDy=0;" edge="1" parent="1" source="lQTOpDhkp-Ly-11tszaa-91">
          <mxGeometry width="50" height="50" relative="1" as="geometry">
            <mxPoint x="710" y="-10" as="sourcePoint" />
            <mxPoint x="250" y="-90" as="targetPoint" />
          </mxGeometry>
        </mxCell>
        <mxCell id="lQTOpDhkp-Ly-11tszaa-109" value="" style="endArrow=none;html=1;rounded=0;entryX=1;entryY=1;entryDx=0;entryDy=0;exitX=0;exitY=0.25;exitDx=0;exitDy=0;" edge="1" parent="1" source="lQTOpDhkp-Ly-11tszaa-91" target="lQTOpDhkp-Ly-11tszaa-104">
          <mxGeometry width="50" height="50" relative="1" as="geometry">
            <mxPoint x="370" y="-80" as="sourcePoint" />
            <mxPoint x="264" y="-130" as="targetPoint" />
          </mxGeometry>
        </mxCell>
        <mxCell id="lQTOpDhkp-Ly-11tszaa-110" value="" style="endArrow=none;html=1;rounded=0;entryX=1;entryY=1;entryDx=0;entryDy=0;exitX=0.25;exitY=0;exitDx=0;exitDy=0;" edge="1" parent="1" source="lQTOpDhkp-Ly-11tszaa-91" target="lQTOpDhkp-Ly-11tszaa-97">
          <mxGeometry width="50" height="50" relative="1" as="geometry">
            <mxPoint x="464" y="-118" as="sourcePoint" />
            <mxPoint x="333" y="-143" as="targetPoint" />
          </mxGeometry>
        </mxCell>
        <mxCell id="lQTOpDhkp-Ly-11tszaa-111" value="" style="endArrow=none;html=1;rounded=0;entryX=0.644;entryY=1.069;entryDx=0;entryDy=0;entryPerimeter=0;exitX=0.371;exitY=0.044;exitDx=0;exitDy=0;exitPerimeter=0;" edge="1" parent="1">
          <mxGeometry width="50" height="50" relative="1" as="geometry">
            <mxPoint x="429.52" y="-91.36000000000013" as="sourcePoint" />
            <mxPoint x="392.6200000000001" y="-210.55000000000018" as="targetPoint" />
          </mxGeometry>
        </mxCell>
        <mxCell id="lQTOpDhkp-Ly-11tszaa-112" value="" style="endArrow=none;html=1;rounded=0;entryX=0.815;entryY=-0.034;entryDx=0;entryDy=0;entryPerimeter=0;exitX=0;exitY=1;exitDx=0;exitDy=0;" edge="1" parent="1" source="lQTOpDhkp-Ly-11tszaa-95" target="lQTOpDhkp-Ly-11tszaa-91">
          <mxGeometry width="50" height="50" relative="1" as="geometry">
            <mxPoint x="562" y="-110" as="sourcePoint" />
            <mxPoint x="431" y="-135" as="targetPoint" />
          </mxGeometry>
        </mxCell>
        <mxCell id="lQTOpDhkp-Ly-11tszaa-113" value="" style="endArrow=none;html=1;rounded=0;entryX=0.296;entryY=0.991;entryDx=0;entryDy=0;entryPerimeter=0;" edge="1" parent="1" target="lQTOpDhkp-Ly-11tszaa-94">
          <mxGeometry width="50" height="50" relative="1" as="geometry">
            <mxPoint x="450" y="-90" as="sourcePoint" />
            <mxPoint x="304" y="-35" as="targetPoint" />
          </mxGeometry>
        </mxCell>
        <mxCell id="lQTOpDhkp-Ly-11tszaa-114" value="" style="rhombus;whiteSpace=wrap;html=1;" vertex="1" parent="1">
          <mxGeometry x="570" y="-80" width="55" height="40" as="geometry" />
        </mxCell>
        <mxCell id="lQTOpDhkp-Ly-11tszaa-115" value="" style="endArrow=none;html=1;rounded=0;" edge="1" parent="1">
          <mxGeometry width="50" height="50" relative="1" as="geometry">
            <mxPoint x="504" y="-60" as="sourcePoint" />
            <mxPoint x="574" y="-60" as="targetPoint" />
          </mxGeometry>
        </mxCell>
        <mxCell id="lQTOpDhkp-Ly-11tszaa-116" value="" style="endArrow=none;html=1;rounded=0;" edge="1" parent="1" target="lQTOpDhkp-Ly-11tszaa-117">
          <mxGeometry width="50" height="50" relative="1" as="geometry">
            <mxPoint x="626" y="-59" as="sourcePoint" />
            <mxPoint x="696" y="-59" as="targetPoint" />
          </mxGeometry>
        </mxCell>
        <mxCell id="lQTOpDhkp-Ly-11tszaa-117" value="" style="rounded=0;whiteSpace=wrap;html=1;" vertex="1" parent="1">
          <mxGeometry x="710" y="-90" width="120" height="60" as="geometry" />
        </mxCell>
        <mxCell id="lQTOpDhkp-Ly-11tszaa-118" value="Payment" style="text;html=1;align=center;verticalAlign=middle;whiteSpace=wrap;rounded=0;" vertex="1" parent="1">
          <mxGeometry x="738" y="-75" width="60" height="30" as="geometry" />
        </mxCell>
        <mxCell id="lQTOpDhkp-Ly-11tszaa-119" value="" style="ellipse;whiteSpace=wrap;html=1;" vertex="1" parent="1">
          <mxGeometry x="850" y="-190" width="100" height="60" as="geometry" />
        </mxCell>
        <mxCell id="lQTOpDhkp-Ly-11tszaa-120" value="" style="ellipse;whiteSpace=wrap;html=1;" vertex="1" parent="1">
          <mxGeometry x="718" y="-220" width="100" height="60" as="geometry" />
        </mxCell>
        <mxCell id="lQTOpDhkp-Ly-11tszaa-121" value="" style="ellipse;whiteSpace=wrap;html=1;" vertex="1" parent="1">
          <mxGeometry x="860" y="-90" width="100" height="60" as="geometry" />
        </mxCell>
        <mxCell id="lQTOpDhkp-Ly-11tszaa-122" value="" style="endArrow=none;html=1;rounded=0;exitX=0.5;exitY=0;exitDx=0;exitDy=0;" edge="1" parent="1" source="lQTOpDhkp-Ly-11tszaa-117">
          <mxGeometry width="50" height="50" relative="1" as="geometry">
            <mxPoint x="716" y="-106" as="sourcePoint" />
            <mxPoint x="770" y="-156" as="targetPoint" />
          </mxGeometry>
        </mxCell>
        <mxCell id="lQTOpDhkp-Ly-11tszaa-123" value="" style="endArrow=none;html=1;rounded=0;exitX=0.695;exitY=0.005;exitDx=0;exitDy=0;exitPerimeter=0;" edge="1" parent="1" source="lQTOpDhkp-Ly-11tszaa-117">
          <mxGeometry width="50" height="50" relative="1" as="geometry">
            <mxPoint x="802" y="-99" as="sourcePoint" />
            <mxPoint x="852" y="-149" as="targetPoint" />
          </mxGeometry>
        </mxCell>
        <mxCell id="lQTOpDhkp-Ly-11tszaa-124" value="" style="endArrow=none;html=1;rounded=0;exitX=0;exitY=0.5;exitDx=0;exitDy=0;" edge="1" parent="1" source="lQTOpDhkp-Ly-11tszaa-121">
          <mxGeometry width="50" height="50" relative="1" as="geometry">
            <mxPoint x="856" y="-41" as="sourcePoint" />
            <mxPoint x="833" y="-61" as="targetPoint" />
          </mxGeometry>
        </mxCell>
        <mxCell id="lQTOpDhkp-Ly-11tszaa-125" value="Has" style="text;html=1;align=center;verticalAlign=middle;whiteSpace=wrap;rounded=0;" vertex="1" parent="1">
          <mxGeometry x="570" y="-75" width="60" height="30" as="geometry" />
        </mxCell>
        <mxCell id="lQTOpDhkp-Ly-11tszaa-126" value="1" style="text;html=1;align=center;verticalAlign=middle;whiteSpace=wrap;rounded=0;" vertex="1" parent="1">
          <mxGeometry x="511" y="-90" width="60" height="30" as="geometry" />
        </mxCell>
        <mxCell id="lQTOpDhkp-Ly-11tszaa-127" value="1" style="text;html=1;align=center;verticalAlign=middle;resizable=0;points=[];autosize=1;strokeColor=none;fillColor=none;" vertex="1" parent="1">
          <mxGeometry x="652" y="-90" width="30" height="30" as="geometry" />
        </mxCell>
        <mxCell id="lQTOpDhkp-Ly-11tszaa-128" value="&lt;u&gt;Payment_id&lt;/u&gt;" style="text;html=1;align=center;verticalAlign=middle;whiteSpace=wrap;rounded=0;" vertex="1" parent="1">
          <mxGeometry x="740" y="-200" width="60" height="30" as="geometry" />
        </mxCell>
        <mxCell id="lQTOpDhkp-Ly-11tszaa-129" value="Amount" style="text;html=1;align=center;verticalAlign=middle;whiteSpace=wrap;rounded=0;" vertex="1" parent="1">
          <mxGeometry x="880" y="-70" width="60" height="30" as="geometry" />
        </mxCell>
        <mxCell id="lQTOpDhkp-Ly-11tszaa-130" value="Payment_mode" style="text;html=1;align=center;verticalAlign=middle;whiteSpace=wrap;rounded=0;" vertex="1" parent="1">
          <mxGeometry x="870" y="-175" width="60" height="30" as="geometry" />
        </mxCell>
        <mxCell id="lQTOpDhkp-Ly-11tszaa-131" value="" style="ellipse;whiteSpace=wrap;html=1;" vertex="1" parent="1">
          <mxGeometry x="735" y="235" width="95" height="50" as="geometry" />
        </mxCell>
        <mxCell id="lQTOpDhkp-Ly-11tszaa-132" value="" style="endArrow=none;html=1;rounded=0;exitX=0.942;exitY=-0.005;exitDx=0;exitDy=0;exitPerimeter=0;entryX=0;entryY=0.5;entryDx=0;entryDy=0;" edge="1" parent="1" source="lQTOpDhkp-Ly-11tszaa-36" target="lQTOpDhkp-Ly-11tszaa-131">
          <mxGeometry width="50" height="50" relative="1" as="geometry">
            <mxPoint x="691" y="290" as="sourcePoint" />
            <mxPoint x="741" y="240" as="targetPoint" />
          </mxGeometry>
        </mxCell>
        <mxCell id="lQTOpDhkp-Ly-11tszaa-133" value="&lt;u&gt;Route_id&lt;/u&gt;" style="text;html=1;align=center;verticalAlign=middle;whiteSpace=wrap;rounded=0;" vertex="1" parent="1">
          <mxGeometry x="748" y="245" width="60" height="30" as="geometry" />
        </mxCell>
        <mxCell id="lQTOpDhkp-Ly-11tszaa-137" value="" style="endArrow=none;html=1;rounded=0;" edge="1" parent="1">
          <mxGeometry width="50" height="50" relative="1" as="geometry">
            <mxPoint x="312" y="408" as="sourcePoint" />
            <mxPoint x="300" y="440" as="targetPoint" />
          </mxGeometry>
        </mxCell>
        <mxCell id="lQTOpDhkp-Ly-11tszaa-138" value="" style="ellipse;whiteSpace=wrap;html=1;" vertex="1" parent="1">
          <mxGeometry x="248" y="440" width="92" height="53" as="geometry" />
        </mxCell>
        <mxCell id="lQTOpDhkp-Ly-11tszaa-139" value="" style="ellipse;whiteSpace=wrap;html=1;" vertex="1" parent="1">
          <mxGeometry x="358" y="440" width="92" height="53" as="geometry" />
        </mxCell>
        <mxCell id="lQTOpDhkp-Ly-11tszaa-140" value="" style="endArrow=none;html=1;rounded=0;exitX=0.351;exitY=-0.05;exitDx=0;exitDy=0;exitPerimeter=0;" edge="1" parent="1">
          <mxGeometry width="50" height="50" relative="1" as="geometry">
            <mxPoint x="390.2919999999999" y="444.3499999999999" as="sourcePoint" />
            <mxPoint x="390" y="407" as="targetPoint" />
          </mxGeometry>
        </mxCell>
        <mxCell id="lQTOpDhkp-Ly-11tszaa-141" value="" style="ellipse;whiteSpace=wrap;html=1;" vertex="1" parent="1">
          <mxGeometry x="458" y="434" width="92" height="53" as="geometry" />
        </mxCell>
        <mxCell id="lQTOpDhkp-Ly-11tszaa-142" value="" style="endArrow=none;html=1;rounded=0;entryX=1;entryY=0.75;entryDx=0;entryDy=0;exitX=0;exitY=0;exitDx=0;exitDy=0;" edge="1" parent="1" source="lQTOpDhkp-Ly-11tszaa-141" target="lQTOpDhkp-Ly-11tszaa-87">
          <mxGeometry width="50" height="50" relative="1" as="geometry">
            <mxPoint x="470" y="430" as="sourcePoint" />
            <mxPoint x="470" y="370" as="targetPoint" />
          </mxGeometry>
        </mxCell>
        <mxCell id="lQTOpDhkp-Ly-11tszaa-143" value="&lt;u&gt;Cancellation-id&lt;/u&gt;" style="text;html=1;align=center;verticalAlign=middle;whiteSpace=wrap;rounded=0;" vertex="1" parent="1">
          <mxGeometry x="260" y="451.5" width="60" height="30" as="geometry" />
        </mxCell>
        <mxCell id="lQTOpDhkp-Ly-11tszaa-144" value="Booking id" style="text;html=1;align=center;verticalAlign=middle;whiteSpace=wrap;rounded=0;" vertex="1" parent="1">
          <mxGeometry x="374" y="451.5" width="60" height="30" as="geometry" />
        </mxCell>
        <mxCell id="lQTOpDhkp-Ly-11tszaa-145" value="Reason" style="text;html=1;align=center;verticalAlign=middle;whiteSpace=wrap;rounded=0;" vertex="1" parent="1">
          <mxGeometry x="465" y="445.5" width="60" height="30" as="geometry" />
        </mxCell>
        <mxCell id="lQTOpDhkp-Ly-11tszaa-146" value="" style="rhombus;whiteSpace=wrap;html=1;" vertex="1" parent="1">
          <mxGeometry x="130" y="335" width="80" height="80" as="geometry" />
        </mxCell>
        <mxCell id="lQTOpDhkp-Ly-11tszaa-147" value="" style="rounded=0;whiteSpace=wrap;html=1;" vertex="1" parent="1">
          <mxGeometry x="-70" y="344" width="120" height="60" as="geometry" />
        </mxCell>
        <mxCell id="lQTOpDhkp-Ly-11tszaa-148" value="" style="endArrow=none;html=1;rounded=0;entryX=0;entryY=0.5;entryDx=0;entryDy=0;exitX=1;exitY=0.5;exitDx=0;exitDy=0;" edge="1" parent="1" source="lQTOpDhkp-Ly-11tszaa-147" target="lQTOpDhkp-Ly-11tszaa-146">
          <mxGeometry width="50" height="50" relative="1" as="geometry">
            <mxPoint x="65" y="320" as="sourcePoint" />
            <mxPoint x="115" y="270" as="targetPoint" />
          </mxGeometry>
        </mxCell>
        <mxCell id="lQTOpDhkp-Ly-11tszaa-149" value="" style="endArrow=none;html=1;rounded=0;entryX=0;entryY=0.5;entryDx=0;entryDy=0;exitX=1;exitY=0.5;exitDx=0;exitDy=0;" edge="1" parent="1">
          <mxGeometry width="50" height="50" relative="1" as="geometry">
            <mxPoint x="211" y="375" as="sourcePoint" />
            <mxPoint x="291" y="376" as="targetPoint" />
          </mxGeometry>
        </mxCell>
        <mxCell id="lQTOpDhkp-Ly-11tszaa-150" value="Has" style="text;html=1;align=center;verticalAlign=middle;whiteSpace=wrap;rounded=0;" vertex="1" parent="1">
          <mxGeometry x="137" y="360" width="60" height="30" as="geometry" />
        </mxCell>
        <mxCell id="lQTOpDhkp-Ly-11tszaa-151" value="1" style="text;html=1;align=center;verticalAlign=middle;whiteSpace=wrap;rounded=0;" vertex="1" parent="1">
          <mxGeometry x="220" y="340" width="60" height="30" as="geometry" />
        </mxCell>
        <mxCell id="lQTOpDhkp-Ly-11tszaa-152" value="1" style="text;html=1;align=center;verticalAlign=middle;resizable=0;points=[];autosize=1;strokeColor=none;fillColor=none;" vertex="1" parent="1">
          <mxGeometry x="70" y="344" width="30" height="30" as="geometry" />
        </mxCell>
        <mxCell id="lQTOpDhkp-Ly-11tszaa-153" value="Refund" style="text;html=1;align=center;verticalAlign=middle;whiteSpace=wrap;rounded=0;" vertex="1" parent="1">
          <mxGeometry x="-40" y="359" width="60" height="30" as="geometry" />
        </mxCell>
        <mxCell id="lQTOpDhkp-Ly-11tszaa-154" value="" style="ellipse;whiteSpace=wrap;html=1;" vertex="1" parent="1">
          <mxGeometry x="-100" y="440" width="110" height="50" as="geometry" />
        </mxCell>
        <mxCell id="lQTOpDhkp-Ly-11tszaa-155" value="" style="ellipse;whiteSpace=wrap;html=1;" vertex="1" parent="1">
          <mxGeometry x="25" y="443" width="105" height="50" as="geometry" />
        </mxCell>
        <mxCell id="lQTOpDhkp-Ly-11tszaa-156" value="" style="endArrow=none;dashed=1;html=1;dashPattern=1 3;strokeWidth=2;rounded=0;" edge="1" parent="1">
          <mxGeometry width="50" height="50" relative="1" as="geometry">
            <mxPoint x="377" y="476" as="sourcePoint" />
            <mxPoint x="437" y="476" as="targetPoint" />
          </mxGeometry>
        </mxCell>
        <mxCell id="lQTOpDhkp-Ly-11tszaa-157" value="" style="endArrow=none;dashed=1;html=1;dashPattern=1 3;strokeWidth=2;rounded=0;" edge="1" parent="1">
          <mxGeometry width="50" height="50" relative="1" as="geometry">
            <mxPoint x="747" y="313" as="sourcePoint" />
            <mxPoint x="807" y="313" as="targetPoint" />
          </mxGeometry>
        </mxCell>
        <mxCell id="lQTOpDhkp-Ly-11tszaa-159" value="" style="endArrow=none;dashed=1;html=1;dashPattern=1 3;strokeWidth=2;rounded=0;" edge="1" parent="1">
          <mxGeometry width="50" height="50" relative="1" as="geometry">
            <mxPoint x="192" y="-140" as="sourcePoint" />
            <mxPoint x="252" y="-140" as="targetPoint" />
          </mxGeometry>
        </mxCell>
        <mxCell id="lQTOpDhkp-Ly-11tszaa-160" value="" style="endArrow=none;dashed=1;html=1;dashPattern=1 3;strokeWidth=2;rounded=0;" edge="1" parent="1">
          <mxGeometry width="50" height="50" relative="1" as="geometry">
            <mxPoint x="169" y="-80" as="sourcePoint" />
            <mxPoint x="229" y="-80" as="targetPoint" />
          </mxGeometry>
        </mxCell>
        <mxCell id="lQTOpDhkp-Ly-11tszaa-161" value="" style="endArrow=none;dashed=1;html=1;dashPattern=1 3;strokeWidth=2;rounded=0;" edge="1" parent="1">
          <mxGeometry width="50" height="50" relative="1" as="geometry">
            <mxPoint x="574" y="-181" as="sourcePoint" />
            <mxPoint x="634" y="-181" as="targetPoint" />
          </mxGeometry>
        </mxCell>
        <mxCell id="lQTOpDhkp-Ly-11tszaa-162" value="" style="endArrow=none;html=1;rounded=0;" edge="1" parent="1">
          <mxGeometry width="50" height="50" relative="1" as="geometry">
            <mxPoint x="-121" y="415" as="sourcePoint" />
            <mxPoint x="-71" y="365" as="targetPoint" />
          </mxGeometry>
        </mxCell>
        <mxCell id="lQTOpDhkp-Ly-11tszaa-163" value="" style="ellipse;whiteSpace=wrap;html=1;" vertex="1" parent="1">
          <mxGeometry x="-200" y="410" width="110" height="50" as="geometry" />
        </mxCell>
        <mxCell id="lQTOpDhkp-Ly-11tszaa-164" value="" style="endArrow=none;html=1;rounded=0;entryX=0.399;entryY=1.02;entryDx=0;entryDy=0;entryPerimeter=0;exitX=0.708;exitY=0;exitDx=0;exitDy=0;exitPerimeter=0;" edge="1" parent="1" source="lQTOpDhkp-Ly-11tszaa-154" target="lQTOpDhkp-Ly-11tszaa-147">
          <mxGeometry width="50" height="50" relative="1" as="geometry">
            <mxPoint x="120" y="440" as="sourcePoint" />
            <mxPoint x="170" y="390" as="targetPoint" />
          </mxGeometry>
        </mxCell>
        <mxCell id="lQTOpDhkp-Ly-11tszaa-165" value="" style="endArrow=none;html=1;rounded=0;entryX=0.857;entryY=1.059;entryDx=0;entryDy=0;entryPerimeter=0;exitX=0.246;exitY=-0.018;exitDx=0;exitDy=0;exitPerimeter=0;" edge="1" parent="1" source="lQTOpDhkp-Ly-11tszaa-155" target="lQTOpDhkp-Ly-11tszaa-147">
          <mxGeometry width="50" height="50" relative="1" as="geometry">
            <mxPoint x="120" y="440" as="sourcePoint" />
            <mxPoint x="170" y="390" as="targetPoint" />
          </mxGeometry>
        </mxCell>
        <mxCell id="lQTOpDhkp-Ly-11tszaa-166" value="Cancellation_id" style="text;html=1;align=center;verticalAlign=middle;whiteSpace=wrap;rounded=0;" vertex="1" parent="1">
          <mxGeometry x="-175" y="425" width="60" height="30" as="geometry" />
        </mxCell>
        <mxCell id="lQTOpDhkp-Ly-11tszaa-167" value="" style="endArrow=none;dashed=1;html=1;dashPattern=1 3;strokeWidth=2;rounded=0;" edge="1" parent="1">
          <mxGeometry width="50" height="50" relative="1" as="geometry">
            <mxPoint x="-183" y="448" as="sourcePoint" />
            <mxPoint x="-113" y="448" as="targetPoint" />
          </mxGeometry>
        </mxCell>
        <mxCell id="lQTOpDhkp-Ly-11tszaa-168" value="Refund_id" style="text;html=1;align=center;verticalAlign=middle;whiteSpace=wrap;rounded=0;" vertex="1" parent="1">
          <mxGeometry x="-75" y="450" width="60" height="30" as="geometry" />
        </mxCell>
        <mxCell id="lQTOpDhkp-Ly-11tszaa-169" value="Refund_status" style="text;html=1;align=center;verticalAlign=middle;whiteSpace=wrap;rounded=0;" vertex="1" parent="1">
          <mxGeometry x="47.5" y="453" width="60" height="30" as="geometry" />
        </mxCell>
        <mxCell id="lQTOpDhkp-Ly-11tszaa-170" value="" style="ellipse;whiteSpace=wrap;html=1;" vertex="1" parent="1">
          <mxGeometry x="300" y="510" width="115" height="50" as="geometry" />
        </mxCell>
        <mxCell id="lQTOpDhkp-Ly-11tszaa-171" value="Cancel_date_time" style="text;html=1;align=center;verticalAlign=middle;whiteSpace=wrap;rounded=0;" vertex="1" parent="1">
          <mxGeometry x="327.5" y="520" width="60" height="30" as="geometry" />
        </mxCell>
        <mxCell id="lQTOpDhkp-Ly-11tszaa-172" value="" style="endArrow=none;html=1;rounded=0;exitX=0.5;exitY=0;exitDx=0;exitDy=0;" edge="1" parent="1">
          <mxGeometry width="50" height="50" relative="1" as="geometry">
            <mxPoint x="357.5" y="507" as="sourcePoint" />
            <mxPoint x="350" y="407" as="targetPoint" />
          </mxGeometry>
        </mxCell>
        <mxCell id="lQTOpDhkp-Ly-11tszaa-173" value="" style="ellipse;whiteSpace=wrap;html=1;" vertex="1" parent="1">
          <mxGeometry x="188" y="-62" width="100" height="48" as="geometry" />
        </mxCell>
        <mxCell id="lQTOpDhkp-Ly-11tszaa-174" value="" style="endArrow=none;html=1;rounded=0;exitX=1;exitY=0.5;exitDx=0;exitDy=0;" edge="1" parent="1" source="lQTOpDhkp-Ly-11tszaa-173">
          <mxGeometry width="50" height="50" relative="1" as="geometry">
            <mxPoint x="315" y="-6" as="sourcePoint" />
            <mxPoint x="380" y="-38" as="targetPoint" />
          </mxGeometry>
        </mxCell>
        <mxCell id="lQTOpDhkp-Ly-11tszaa-176" value="Tickets" style="text;html=1;align=center;verticalAlign=middle;whiteSpace=wrap;rounded=0;" vertex="1" parent="1">
          <mxGeometry x="200" y="-53" width="60" height="30" as="geometry" />
        </mxCell>
      </root>
    </mxGraphModel>
  </diagram>
</mxfile>
